<?xml version="1.0" encoding="UTF-8"?>
<!DOCTYPE svg PUBLIC "-//W3C//DTD SVG 1.1//EN" "http://www.w3.org/Graphics/SVG/1.1/DTD/svg11.dtd">
<!-- Creator: CorelDRAW X6 -->
<svg xmlns="http://www.w3.org/2000/svg" xml:space="preserve" width="210mm" height="297mm" version="1.1" style="shape-rendering:geometricPrecision; text-rendering:geometricPrecision; image-rendering:optimizeQuality; fill-rule:evenodd; clip-rule:evenodd"
viewBox="0 0 21000 29700"
 xmlns:xlink="http://www.w3.org/1999/xlink">
 <defs>
  <style type="text/css">
   <![CDATA[
    .fil0 {fill:black}
   ]]>
  </style>
 </defs>
 <g id="Camada_x0020_1">
  <metadata id="CorelCorpID_0Corel-Layer"/>
  <g id="_1007499600">
   <path class="fil0" d="M4706 15735c211,314 892,290 1206,290l9124 7c387,0 704,37 1042,-105 64,-27 68,-35 117,-69 26,-18 36,-20 59,-43l50 -60c-62,414 -722,432 -1130,426 -521,-7 -1048,8 -1568,-3 -516,-11 -1037,6 -1553,-1 -519,-7 -1048,-1 -1570,-1l-4672 -3c-314,1 -1080,-2 -1105,-438zm2454 680l6611 6c467,-1 1590,27 1972,-4 266,-21 485,-140 651,-327 187,-212 168,-520 145,-815 -20,-260 -85,-1730 -133,-1842 -36,-53 -105,-42 -160,-21 -94,277 45,1530 -43,1795 -76,13 -215,28 -281,-12l-9 -1661c0,-91 -15,-157 -119,-145 -97,11 -81,102 -81,196 1,164 12,1556 -12,1595 -43,69 -224,33 -294,24 -27,-283 -12,-1142 -5,-1383 2,-91 8,-234 1,-322 -12,-140 -106,-142 -195,-54l-12 1607c-1,178 -27,158 -177,160 -97,1 -125,7 -134,-88 -2,-20 0,-64 0,-88 0,-55 0,-111 1,-166 3,-154 27,-1306 2,-1402 -13,-50 -48,-83 -101,-80 -25,1 -54,16 -72,24 -76,247 20,1707 -43,1781 -30,36 -129,18 -175,19 -117,1 -123,-14 -123,-126l7 -1641c-86,-72 -71,-74 -179,-38 -47,168 -25,1445 -28,1775 -86,56 -202,21 -298,21 -73,-325 56,-1593 -27,-1797 -246,-95 -176,239 -179,431l-6 1181c0,85 30,180 -65,193 -82,11 -190,10 -240,-32 -26,-311 42,-1653 -21,-1748 -36,-54 -138,-70 -168,6 -39,98 14,1705 -34,1756l-58 18c-77,7 -174,4 -231,-23 -33,-316 2,-1250 1,-1653 -1,-194 -179,-194 -196,-61 -12,96 -4,306 -5,414 -2,335 37,1025 -12,1294 -39,27 -239,62 -287,10 -37,-40 -27,-1605 -6,-1742 -234,-193 -205,132 -205,319 0,158 -3,315 -3,472 -1,1103 100,960 -302,961 -68,-259 45,-1567 -26,-1797 -241,-94 -181,216 -181,381l-6 1265c0,85 25,141 -57,156 -54,10 -183,5 -236,-7 -73,-172 41,-1651 -30,-1770 -63,-104 -186,-43 -183,103l-4 1654c-70,26 -146,22 -222,22 -138,0 -85,-159 -87,-309l5 -1366c2,-126 -89,-211 -173,-120 -55,60 -24,233 -26,322l-6 1130c-2,289 60,343 -219,343 -145,0 -93,-130 -93,-292l8 -1466c-28,-72 -201,-154 -201,120 0,232 20,1535 -23,1622 -344,87 -298,-63 -295,-191 2,-109 0,-211 0,-320l6 -1164c0,-92 -31,-163 -137,-128 -76,25 -64,121 -65,212l-7 1450c0,92 13,80 -20,149 -352,41 -290,-11 -290,-352 0,-134 39,-1381 -24,-1441 -46,-45 -138,-37 -160,37 -43,142 30,1625 -37,1752 -299,42 -289,20 -288,-180l3 -1535c0,-90 -92,-129 -153,-72 -61,56 -44,146 -44,241l-6 1166c5,401 53,391 -216,391 -83,0 -96,-11 -98,-89l6 -1333c2,-147 37,-308 -55,-402 -165,-12 -138,74 -141,220l-5 1026c-1,123 30,486 -26,557 -51,32 -194,31 -262,7 -85,-66 37,-1641 -33,-1771 -27,-50 -124,-63 -161,-10 -52,73 -28,1337 -28,1503 0,275 27,290 -225,290 -132,0 -87,-182 -87,-306 0,-291 -5,-586 0,-876 2,-142 0,-291 4,-436 8,-312 -167,-205 -189,-141 -43,124 -4,1325 -14,1660 -4,131 -93,103 -204,101 -80,-1 -110,0 -110,-88l6 -1602c0,-84 -33,-157 -127,-133 -89,22 -72,135 -73,221l-4 1416c-3,206 -14,211 -306,175l-8 -1770c-61,-48 -86,-38 -164,-35 -65,160 -29,1417 -36,1713 -3,138 -101,104 -208,104 -141,0 -104,-154 -104,-256 0,-262 1,-529 3,-792 1,-178 34,-649 -25,-765 -243,-59 -167,228 -168,546 -1,252 -33,1065 -9,1247 -81,30 -220,38 -301,0 -78,-331 67,-1444 -17,-1774 -209,-107 -185,86 -185,258 0,174 -3,348 -3,523 0,76 16,895 -5,960 -23,73 5,8 -31,38 -50,23 -118,12 -170,0 -46,-188 2,-1310 -7,-1656 -2,-85 -3,-141 -76,-156 -158,-32 -128,187 -134,292 -22,393 -145,1800 -110,2035 32,214 145,402 319,524 196,139 427,182 669,183 573,3 1147,2 1720,1z"/>
   <path class="fil0" d="M16041 7261l-11144 0c81,1415 128,2863 215,4269 12,202 55,1335 84,1429l879 0c-8,-98 -15,-199 -17,-301 -1,-79 -8,-199 -14,-303l-196 -4269 9340 -5 -245 4888c108,-23 743,-19 811,-4 102,-1357 142,-2876 218,-4272 25,-465 47,-965 71,-1434z"/>
   <path class="fil0" d="M10470 22439l29 0c76,-67 216,-144 308,-200l311 -193c843,-543 1775,-1111 2633,-1651l314 -194c265,-159 583,-380 829,-518l270 -168c4,-3 17,-11 21,-14l114 -72c47,-27 105,-64 137,-95l34 -639c7,-218 26,-432 38,-649 21,-397 26,-874 71,-1281l-813 2 -116 2061c-75,15 -3209,1930 -3647,2188 -90,53 -174,102 -263,158 -70,44 -189,123 -260,148l-1557 -950c-807,-511 -1773,-1042 -2582,-1560 -31,-669 -95,-1339 -150,-2040l-846 -2c-24,87 160,2532 167,2547l615 394c397,240 863,557 1246,778l622 391c423,272 829,513 1246,780l624 387c111,63 207,127 311,194l270 169c17,12 16,15 27,27z"/>
   <path class="fil0" d="M8222 11732c-10,-104 -54,-177 -135,-204 -90,-29 -213,1 -287,45 -147,88 -215,283 -141,486 97,266 477,472 826,540 398,77 846,46 1225,-55 389,-103 670,-255 866,-486 249,260 455,381 851,484 602,157 1285,165 1810,-185 267,-177 413,-589 129,-774 -129,-84 -391,-147 -444,137 4,-4 245,-265 362,-26 71,145 5,296 -199,357 -360,108 -867,-100 -1083,-323 -37,-38 -26,-36 -66,-68 -265,-212 -406,-433 -911,-424 -268,5 -304,59 -456,140 -343,-235 -791,-163 -1115,80 -47,35 -35,21 -83,69l-399 343c-222,147 -618,277 -928,177 -310,-100 -236,-475 8,-443 125,16 109,69 173,128z"/>
   <path class="fil0" d="M2742 13112c37,54 717,1791 719,1825 2,34 -682,1767 -719,1812l0 32 2245 0c-130,-88 -501,-79 -835,-371 -151,-132 -160,-216 -144,-460 13,-191 24,-382 33,-573 22,-481 138,-2008 132,-2289 -133,-31 -1222,-18 -1431,-6l0 30z"/>
   <path class="fil0" d="M18258 16777l0 -29c-36,-42 -151,-363 -180,-436 -62,-155 -119,-300 -184,-458l-355 -919 352 -909c56,-149 309,-831 367,-918l0 -27c-162,-10 -1332,-14 -1431,6 -3,340 42,769 65,1122l101 1720c14,228 3,348 -136,473 -165,150 -376,238 -603,305 -71,21 -182,31 -238,67l2242 3z"/>
   <path class="fil0" d="M6512 12946l26 9c31,5 0,2 30,4 26,2 68,-1 95,-1l-52 -1042c-5,-90 -11,-177 -12,-269l-36 -804c-32,-710 -45,-1413 -81,-2154l8023 -1 -93 2132c-10,292 -119,2027 -80,2142l129 -3c26,-174 25,-390 28,-537 2,-94 10,-192 15,-287l60 -1365c40,-761 62,-1485 97,-2233l-8330 0c33,744 44,1476 78,2217l75 1651c9,167 2,387 28,541z"/>
   <path class="fil0" d="M6776 18562l473 282c152,96 311,190 465,278l1406 839c153,93 301,186 460,279 3,2 8,4 11,6l22 11c13,7 22,13 31,18l872 518c151,-86 316,-193 474,-292l292 -180c11,-6 21,-11 32,-17 3,-2 8,-4 11,-6l1512 -936c196,-120 1301,-817 1380,-843l10 -229c21,-319 104,-1363 84,-1532l-141 9 -100 1653c-156,93 -299,191 -447,277 -166,96 -288,176 -446,275 -552,344 -1234,748 -1774,1096 -297,192 -614,368 -885,546l-1795 -1069c-298,-167 -601,-359 -898,-536 -154,-91 -292,-173 -454,-272l-448 -259 -35 -440c-11,-139 -21,-282 -33,-419l-62 -850 -156 2 140 1791z"/>
   <path class="fil0" d="M9387 17768c14,-6 -12,-5 35,-9 6,-1 40,0 48,0 29,0 56,1 85,0l513 2c29,201 -29,518 16,700l297 0 -2 -1555 -312 7 3 672 -682 0 -1 -678 -313 -3 0 1561 314 -3 -1 -693z"/>
   <path class="fil0" d="M11031 17852c-112,-842 446,-888 673,-697 237,199 258,995 -122,1119 -348,114 -512,-136 -550,-422zm-326 -169c0,1007 1032,851 1280,574 181,-202 252,-587 145,-905 -92,-271 -312,-449 -669,-449 -515,0 -756,254 -756,780z"/>
   <path class="fil0" d="M11162 9847c221,11 391,36 391,281 1,271 -136,281 -396,264l4 -544zm3 -604c190,0 321,17 325,226 5,247 -119,220 -333,233l8 -459zm-283 1300c287,-8 722,52 876,-136 77,-93 115,-249 73,-394 -39,-138 -140,-213 -290,-243 71,-54 169,-59 222,-219 43,-129 0,-283 -74,-344 -173,-143 -552,-97 -823,-98 6,234 -25,1310 15,1434z"/>
   <path class="fil0" d="M7348 9848c226,0 387,43 393,280 6,261 -143,286 -397,263l4 -543zm-5 -603c197,-14 333,25 333,225 0,241 -113,230 -332,230l-1 -455zm-286 1299c297,0 700,46 878,-130 86,-85 125,-259 76,-410 -46,-139 -133,-192 -286,-238 123,-59 187,-85 227,-215 35,-113 19,-261 -74,-342 -98,-85 -196,-93 -360,-95 -142,-2 -327,-19 -462,7l2 1423z"/>
   <path class="fil0" d="M13325 9275c215,-59 328,58 328,262 -1,213 -118,282 -326,270l-1 -533zm-285 -149l3 1404 281 1 3 -572 97 -6c45,141 242,536 420,580l265 2c32,-8 45,28 45,-99 -129,-37 -174,-57 -276,-209l-184 -318c90,-74 175,-92 229,-257 41,-124 22,-305 -54,-393 -176,-201 -535,-137 -828,-133z"/>
   <path class="fil0" d="M9836 9268c213,-11 329,27 329,253l0 17c0,238 -111,264 -329,276l0 -545zm-281 -129l0 1388 281 2 -1 -576c118,1 87,-7 190,193 41,81 88,162 138,233 28,40 58,70 89,97 86,74 206,77 315,66 108,-11 97,-6 97,-112 -73,-10 -121,-31 -165,-67l-111 -141c-54,-80 -149,-227 -182,-314 117,-86 176,-101 228,-252 41,-118 29,-312 -54,-404 -162,-179 -683,-156 -825,-113z"/>
   <path class="fil0" d="M12815 17065c252,-28 392,72 374,332 -17,249 -136,320 -378,340l4 -672zm-7 798c232,-5 480,-15 620,-222 2,-3 5,-7 7,-10 2,-3 4,-8 6,-11 114,-204 105,-436 -71,-612 -166,-166 -647,-99 -871,-97l0 1550 314 0 -4 -598z"/>
   <path class="fil0" d="M8765 16923c-317,-44 -585,-85 -796,118 -217,209 -175,476 63,650 44,32 38,28 86,48 30,13 54,23 84,35 53,21 114,41 170,66 131,58 225,119 187,302 -65,312 -639,19 -706,0l-71 237c190,54 528,214 822,4 196,-140 337,-391 133,-672 -125,-173 -551,-221 -625,-370 -25,-50 -23,-147 11,-197 86,-127 484,-15 594,15l49 -236z"/>
   <path class="fil0" d="M8693 9354l198 568 -413 1 215 -568zm-597 1176l166 0 168 -465 502 -6 166 471 294 0c-22,-154 -180,-550 -235,-708l-178 -530c-22,-67 -46,-112 -57,-182 -366,-13 -290,-23 -374,196 -54,140 -101,268 -155,403 -30,75 -303,757 -297,822z"/>
   <path class="fil0" d="M11987 10527l831 3 3 -142 -552 -11 -2 -496 465 -12 5 -123c-99,-18 -378,-36 -468,-6 -9,-106 -22,-376 12,-460 125,3 389,10 499,-20l-1 -134 -797 1 5 1400z"/>
   <path class="fil0" d="M10084 18461c-45,-182 13,-499 -16,-700l-513 -2c-29,1 -57,0 -85,0 -8,0 -43,-1 -48,0 -47,4 -21,3 -35,9l675 0 0 540c-1,123 -16,126 22,154z"/>
  </g>
 </g>
</svg>
